<svg width="1440" height="1024" viewBox="0 0 1440 1024" fill="none" xmlns="http://www.w3.org/2000/svg">
<rect width="1440" height="1024" fill="#360E4F"/>
<path d="M126.831 180.551L150.998 187.189L159.381 181.675L135.609 163.143L160.712 180.796L174.59 171.671L159 154.618L175.972 170.761L188.977 162.206L189.19 148.417L190.794 161.012L219.632 142.046C219.632 142.046 151.722 145.648 128.193 161.787C127.776 162.07 127.423 162.339 127.027 162.617C130.751 163.697 133.282 165.72 133.467 168.211C133.773 172.32 127.6 176.126 119.683 176.715C117.323 176.891 115.076 176.754 113.073 176.376C107.416 188.707 131.65 191.059 140.843 193.867L149.692 188.046L126.831 180.551Z" fill="#452B66"/>
<path d="M219.712 160.943C220.775 150.38 219.631 142.046 219.631 142.046L192.18 161.684L213.941 160.452L190.445 162.922L178.067 171.783L208.493 178.691L176.746 172.721L163.539 182.173L197.936 193.453L162.268 183.081L154.288 188.789L169.73 201.413L153.05 189.676L144.628 195.701C152.943 201.928 164.316 222.958 201.514 197.445C208.747 192.483 213.237 185.337 216 177.818C213.573 176.846 212.083 175.499 212.038 173.933C212.026 173.435 212.172 172.939 212.437 172.458C208.929 171.492 206.674 169.888 206.62 167.956C206.53 164.84 212.179 161.923 219.712 160.943Z" fill="#452B66"/>
<path d="M140.846 193.867L127.913 202.372L132.313 204.511L144.63 195.702C144.055 195.273 143.495 194.912 142.944 194.644C142.393 194.376 141.675 194.119 140.846 193.867Z" fill="#452B66"/>
<path d="M987.985 102.009L1010.22 105.557L1015.65 97.802L990.289 80.514L1016.51 96.5667L1025.51 83.7315L1007.45 66.7614L1026.41 82.4524L1034.84 70.4198L1031 54.5312L1036.02 68.7399L1054.72 42.0635C1054.72 42.0635 998.728 57.6783 983.665 80.2075C983.398 80.6037 983.18 80.9727 982.927 81.3589C986.37 81.9717 989.084 83.8692 989.965 86.7019C991.419 91.3743 987.342 96.7929 980.864 98.8075C978.933 99.4081 977.006 99.6309 975.214 99.5343C974.053 114.666 995.092 113.276 1003.63 114.95L1009.37 106.764L987.985 102.009Z" fill="#452B66"/>
<path d="M1060.29 63.7748C1058.1 51.4511 1054.72 42.0636 1054.72 42.0636L1037.38 69.2786L1055.3 64.1846L1036.28 70.9942L1028.47 83.2733L1056.03 86.0733L1027.63 84.5745L1019.29 97.6722L1051.46 104.828L1018.49 98.9301L1013.44 106.841L1030.09 118.744L1012.66 108.07L1007.34 116.419C1016.14 122.173 1031.82 144.428 1055.63 108.812C1060.26 101.886 1061.95 92.9127 1062.08 83.8013C1059.76 83.0947 1058.12 81.7978 1057.62 80.0053C1057.47 79.434 1057.45 78.84 1057.53 78.2412C1054.3 77.7234 1051.94 76.2611 1051.33 74.0491C1050.35 70.4815 1054.25 66.1738 1060.29 63.7748Z" fill="#452B66"/>
<path d="M1003.63 114.95L995.247 126.912L999.565 128.628L1007.34 116.42C1006.74 116.024 1006.16 115.704 1005.62 115.489C1005.08 115.274 1004.4 115.1 1003.63 114.95Z" fill="#452B66"/>
<path d="M872.417 580.061L892.59 588.343L900.084 583.542L881 563.614L901.274 582.777L913.679 574.832L901.475 556.954L914.915 574.041L926.539 566.592L927.595 553.071L928.164 565.552L953.942 549.04C953.942 549.04 895.841 547.616 874.767 561.741C874.394 561.989 874.076 562.227 873.72 562.471C876.825 563.803 878.854 565.973 878.854 568.433C878.854 572.489 873.352 575.774 866.568 575.774C864.546 575.774 862.639 575.476 860.957 574.958C855.354 586.65 875.857 590.729 883.513 594.157L891.423 589.089L872.417 580.061Z" fill="#452B66"/>
<path d="M952.812 567.597C954.388 557.305 953.942 549.04 953.942 549.04L929.303 566.314L947.926 566.693L927.746 567.401L916.635 575.197L942.126 584.199L915.451 576.021L903.596 584.335L932.193 597.92L902.456 585.133L895.293 590.154L907.652 603.674L894.182 590.934L886.623 596.233C893.314 602.953 901.672 624.428 934.99 602.1C941.468 597.757 945.748 591.071 948.579 583.891C946.572 582.76 945.388 581.329 945.449 579.788C945.471 579.298 945.626 578.822 945.883 578.369C942.955 577.164 941.134 575.426 941.211 573.525C941.332 570.459 946.331 568.008 952.812 567.597Z" fill="#452B66"/>
<path d="M883.515 594.157L871.955 601.561L875.569 603.983L886.624 596.235C886.161 595.772 885.707 595.377 885.254 595.073C884.802 594.77 884.206 594.465 883.515 594.157Z" fill="#452B66"/>
<path d="M1271.42 796.061L1291.59 804.343L1299.08 799.542L1280 779.614L1300.27 798.777L1312.68 790.832L1300.47 772.954L1313.92 790.041L1325.54 782.592L1326.6 769.071L1327.16 781.552L1352.94 765.04C1352.94 765.04 1294.84 763.616 1273.77 777.741C1273.39 777.989 1273.08 778.227 1272.72 778.471C1275.83 779.803 1277.85 781.973 1277.85 784.433C1277.85 788.489 1272.35 791.774 1265.57 791.774C1263.55 791.774 1261.64 791.476 1259.96 790.958C1254.35 802.65 1274.86 806.729 1282.51 810.157L1290.42 805.089L1271.42 796.061Z" fill="#452B66"/>
<path d="M1351.81 783.597C1353.39 773.305 1352.94 765.04 1352.94 765.04L1328.3 782.314L1346.93 782.693L1326.75 783.401L1315.64 791.197L1341.13 800.199L1314.45 792.021L1302.6 800.335L1331.19 813.92L1301.46 801.133L1294.29 806.154L1306.65 819.674L1293.18 806.934L1285.62 812.233C1292.31 818.953 1300.67 840.428 1333.99 818.1C1340.47 813.757 1344.75 807.071 1347.58 799.891C1345.57 798.76 1344.39 797.329 1344.45 795.788C1344.47 795.298 1344.63 794.822 1344.88 794.369C1341.95 793.164 1340.13 791.426 1340.21 789.525C1340.33 786.459 1345.33 784.008 1351.81 783.597Z" fill="#452B66"/>
<path d="M1282.52 810.157L1270.96 817.561L1274.57 819.983L1285.62 812.235C1285.16 811.772 1284.71 811.377 1284.25 811.073C1283.8 810.77 1283.21 810.465 1282.52 810.157Z" fill="#452B66"/>
<path d="M115.844 884.38L118.859 905.977L126.782 910.03L134.375 883.504L128.043 910.672L141.157 917.382L150.447 897.831L142.463 918.051L154.756 924.336L166.966 918.434L156.472 925.216L183.726 939.157C183.726 939.157 155.673 888.258 132.851 877.176C132.449 876.978 132.083 876.824 131.694 876.639C132.108 879.993 131.256 882.839 129.132 884.078C125.629 886.123 120.018 883.027 116.599 877.168C115.58 875.421 114.876 873.624 114.475 871.91C101.553 872.964 108.364 892.728 109.263 901.068L117.626 905.346L115.844 884.38Z" fill="#452B66"/>
<path d="M167.13 947.534C176.813 943.708 183.726 939.157 183.726 939.157L156.389 926.583L165.448 942.858L154.665 925.786L142.332 920.119L147.404 946.673L141.023 919.511L127.868 913.463L130.548 945.009L126.603 912.88L118.657 909.224L113.209 926.713L117.423 908.658L109.036 904.8C106.605 913.966 92.2695 932.009 128.347 949.531C135.363 952.938 143.295 953.264 150.923 952.091C150.888 949.787 151.527 948.043 152.889 947.319C153.323 947.091 153.812 946.985 154.333 946.979C153.898 943.843 154.482 941.394 156.162 940.502C158.871 939.061 163.508 942.144 167.13 947.534Z" fill="#452B66"/>
<path d="M109.264 901.07L97.0417 894.817L96.772 899.159L109.035 904.801C109.202 904.169 109.314 903.577 109.348 903.033C109.382 902.489 109.345 901.822 109.264 901.07Z" fill="#452B66"/>
<path d="M1273.93 331.075L1298.18 339.094L1307.19 334.445L1284.25 315.15L1308.62 333.704L1323.53 326.012L1308.86 308.701L1325.01 325.246L1338.99 318.033L1340.26 304.942L1340.94 317.027L1371.93 301.039C1371.93 301.039 1302.09 299.66 1276.75 313.336C1276.3 313.576 1275.92 313.807 1275.49 314.043C1279.23 315.333 1281.67 317.435 1281.67 319.816C1281.67 323.743 1275.05 326.924 1266.9 326.924C1264.46 326.924 1262.17 326.635 1260.15 326.134C1253.42 337.455 1278.06 341.405 1287.27 344.723L1296.77 339.817L1273.93 331.075Z" fill="#452B66"/>
<path d="M1370.57 319.006C1372.47 309.041 1371.93 301.039 1371.93 301.039L1342.31 317.764L1364.7 318.131L1340.44 318.817L1327.08 326.365L1357.73 335.082L1325.66 327.163L1311.41 335.213L1345.79 348.367L1310.04 335.986L1301.43 340.847L1316.28 353.938L1300.09 341.603L1291 346.734C1299.05 353.241 1309.1 374.033 1349.15 352.414C1356.94 348.209 1362.08 341.735 1365.48 334.783C1363.07 333.688 1361.65 332.302 1361.72 330.811C1361.75 330.336 1361.93 329.876 1362.24 329.436C1358.72 328.27 1356.53 326.587 1356.63 324.746C1356.77 321.778 1362.78 319.405 1370.57 319.006Z" fill="#452B66"/>
<path d="M1287.27 344.723L1273.37 351.893L1277.72 354.237L1291 346.735C1290.45 346.287 1289.9 345.905 1289.36 345.611C1288.81 345.317 1288.1 345.022 1287.27 344.723Z" fill="#452B66"/>
</svg>
