<svg width="1143" height="704" viewBox="0 0 1143 704" fill="none" xmlns="http://www.w3.org/2000/svg">
<path d="M16.8313 276.55L40.9979 283.189L49.3806 277.675L25.6087 259.143L50.7123 276.796L64.5897 267.671L49.0001 250.618L65.9725 266.761L78.9767 258.206L79.1898 244.417L80.7942 257.012L109.632 238.046C109.632 238.046 41.7219 241.648 18.1929 257.787C17.7764 258.07 17.4232 258.339 17.0266 258.617C20.7506 259.697 23.2818 261.72 23.4671 264.211C23.7728 268.32 17.5997 272.126 9.68333 272.715C7.32306 272.891 5.0756 272.754 3.07304 272.376C-2.58356 284.707 21.6502 287.059 30.8432 289.867L39.6921 284.046L16.8313 276.55Z" fill="#452B66"/>
<path d="M109.712 256.943C110.775 246.379 109.631 238.045 109.631 238.045L82.1802 257.684L103.941 256.451L80.445 258.921L68.0665 267.783L98.4925 274.69L66.7465 268.721L53.5388 278.173L87.9355 289.452L52.2679 279.08L44.2876 284.789L59.7297 297.412L43.0502 285.676L34.6283 291.7C42.9433 297.927 54.3155 318.957 91.514 293.444C98.7465 288.482 103.237 281.337 106 273.817C103.573 272.846 102.083 271.499 102.038 269.933C102.026 269.434 102.172 268.939 102.437 268.457C98.9294 267.491 96.674 265.888 96.6203 263.956C96.53 260.839 102.179 257.922 109.712 256.943Z" fill="#452B66"/>
<path d="M30.8452 289.866L17.9126 298.372L22.3129 300.511L34.629 291.702C34.0548 291.273 33.4948 290.912 32.9436 290.644C32.3924 290.376 31.6747 290.119 30.8452 289.866Z" fill="#452B66"/>
<path d="M445.82 60.7654L468.05 64.3137L473.485 56.5584L448.124 39.2703L474.348 55.323L483.347 42.4878L465.288 25.5178L484.244 41.2087L492.675 29.1761L488.839 13.2876L493.854 27.4962L512.552 0.819807C512.552 0.819807 456.563 16.4346 441.5 38.9639C441.233 39.36 441.015 39.7291 440.762 40.1153C444.205 40.728 446.919 42.6255 447.8 45.4582C449.254 50.1306 445.177 55.5492 438.699 57.5638C436.768 58.1645 434.841 58.3872 433.049 58.2906C431.888 73.4224 452.927 72.0324 461.465 73.7065L467.203 65.5202L445.82 60.7654Z" fill="#452B66"/>
<path d="M518.122 22.5312C515.94 10.2074 512.553 0.819922 512.553 0.819922L495.214 28.035L513.133 22.941L494.117 29.7505L486.301 42.0297L513.867 44.8297L485.465 43.3309L477.124 56.4285L509.298 63.5843L476.32 57.6865L471.28 65.5976L487.925 77.5008L470.499 66.8261L465.179 75.1755C473.976 80.9293 489.651 103.184 513.466 67.5688C518.096 60.6424 519.787 51.6691 519.918 42.5577C517.596 41.851 515.953 40.5542 515.459 38.7617C515.305 38.1903 515.282 37.5963 515.365 36.9975C512.138 36.4798 509.776 35.0175 509.169 32.8054C508.186 29.2378 512.081 24.9301 518.122 22.5312Z" fill="#452B66"/>
<path d="M461.467 73.7059L453.082 85.6687L457.4 87.3845L465.18 75.1765C464.573 74.7803 463.997 74.4605 463.456 74.2454C462.915 74.0303 462.238 73.8564 461.467 73.7059Z" fill="#452B66"/>
<path d="M709.417 480.061L729.59 488.343L737.084 483.542L718 463.614L738.274 482.777L750.679 474.832L738.475 456.954L751.915 474.041L763.539 466.592L764.595 453.071L765.164 465.552L790.942 449.04C790.942 449.04 732.841 447.616 711.767 461.741C711.394 461.989 711.076 462.227 710.72 462.471C713.825 463.803 715.854 465.973 715.854 468.433C715.854 472.489 710.352 475.774 703.568 475.774C701.546 475.774 699.639 475.476 697.957 474.958C692.354 486.65 712.857 490.729 720.513 494.157L728.423 489.089L709.417 480.061Z" fill="#452B66"/>
<path d="M789.812 467.597C791.388 457.305 790.942 449.04 790.942 449.04L766.303 466.314L784.926 466.693L764.746 467.401L753.635 475.197L779.126 484.199L752.451 476.021L740.596 484.335L769.193 497.92L739.456 485.133L732.293 490.154L744.652 503.674L731.182 490.934L723.623 496.233C730.314 502.953 738.672 524.428 771.99 502.1C778.468 497.757 782.748 491.071 785.579 483.891C783.572 482.76 782.388 481.329 782.449 479.788C782.471 479.298 782.626 478.822 782.883 478.369C779.955 477.164 778.134 475.426 778.211 473.525C778.332 470.459 783.331 468.008 789.812 467.597Z" fill="#452B66"/>
<path d="M720.515 494.157L708.955 501.561L712.569 503.983L723.624 496.235C723.161 495.772 722.707 495.377 722.254 495.073C721.802 494.77 721.206 494.465 720.515 494.157Z" fill="#452B66"/>
<path d="M1061.42 672.061L1081.59 680.343L1089.08 675.542L1070 655.614L1090.27 674.777L1102.68 666.832L1090.47 648.954L1103.92 666.041L1115.54 658.592L1116.6 645.071L1117.16 657.552L1142.94 641.04C1142.94 641.04 1084.84 639.616 1063.77 653.741C1063.39 653.989 1063.08 654.227 1062.72 654.471C1065.83 655.803 1067.85 657.973 1067.85 660.433C1067.85 664.489 1062.35 667.774 1055.57 667.774C1053.55 667.774 1051.64 667.476 1049.96 666.958C1044.35 678.65 1064.86 682.729 1072.51 686.157L1080.42 681.089L1061.42 672.061Z" fill="#452B66"/>
<path d="M1141.81 659.597C1143.39 649.305 1142.94 641.04 1142.94 641.04L1118.3 658.314L1136.93 658.693L1116.75 659.401L1105.64 667.197L1131.13 676.199L1104.45 668.021L1092.6 676.335L1121.19 689.92L1091.46 677.133L1084.29 682.154L1096.65 695.674L1083.18 682.934L1075.62 688.233C1082.31 694.953 1090.67 716.428 1123.99 694.1C1130.47 689.757 1134.75 683.071 1137.58 675.891C1135.57 674.76 1134.39 673.329 1134.45 671.788C1134.47 671.298 1134.63 670.822 1134.88 670.369C1131.95 669.164 1130.13 667.426 1130.21 665.525C1130.33 662.459 1135.33 660.008 1141.81 659.597Z" fill="#452B66"/>
<path d="M1072.52 686.157L1060.96 693.561L1064.57 695.983L1075.62 688.235C1075.16 687.772 1074.71 687.377 1074.25 687.073C1073.8 686.77 1073.21 686.465 1072.52 686.157Z" fill="#452B66"/>
<path d="M203.844 595.38L206.859 616.977L214.782 621.03L222.375 594.504L216.043 621.672L229.157 628.382L238.447 608.831L230.463 629.051L242.756 635.336L254.966 629.434L244.472 636.216L271.726 650.157C271.726 650.157 243.673 599.258 220.851 588.176C220.449 587.978 220.083 587.824 219.694 587.639C220.108 590.993 219.256 593.839 217.132 595.078C213.629 597.123 208.018 594.027 204.599 588.168C203.58 586.421 202.876 584.624 202.475 582.91C189.553 583.964 196.364 603.728 197.263 612.068L205.626 616.346L203.844 595.38Z" fill="#452B66"/>
<path d="M255.13 658.534C264.813 654.708 271.726 650.157 271.726 650.157L244.389 637.583L253.448 653.858L242.665 636.786L230.332 631.119L235.404 657.673L229.023 630.511L215.868 624.463L218.548 656.009L214.603 623.88L206.657 620.224L201.209 637.713L205.423 619.658L197.036 615.8C194.605 624.966 180.27 643.009 216.347 660.531C223.363 663.937 231.295 664.264 238.923 663.09C238.888 660.787 239.527 659.043 240.889 658.319C241.323 658.091 241.812 657.985 242.333 657.979C241.898 654.843 242.482 652.394 244.162 651.502C246.871 650.061 251.508 653.144 255.13 658.534Z" fill="#452B66"/>
<path d="M197.263 612.07L185.041 605.817L184.772 610.159L197.035 615.801C197.202 615.169 197.314 614.577 197.348 614.033C197.382 613.489 197.345 612.822 197.263 612.07Z" fill="#452B66"/>
<path d="M1044.93 169.075L1069.18 177.094L1078.19 172.445L1055.25 153.15L1079.62 171.704L1094.53 164.012L1079.86 146.701L1096.01 163.246L1109.99 156.033L1111.26 142.942L1111.94 155.027L1142.93 139.039C1142.93 139.039 1073.09 137.66 1047.75 151.336C1047.3 151.576 1046.92 151.807 1046.49 152.043C1050.23 153.333 1052.67 155.435 1052.67 157.816C1052.67 161.743 1046.05 164.924 1037.9 164.924C1035.46 164.924 1033.17 164.635 1031.15 164.134C1024.42 175.455 1049.06 179.405 1058.27 182.723L1067.77 177.817L1044.93 169.075Z" fill="#452B66"/>
<path d="M1141.57 157.007C1143.47 147.041 1142.93 139.039 1142.93 139.039L1113.31 155.764L1135.7 156.131L1111.44 156.818L1098.08 164.365L1128.73 173.082L1096.66 165.163L1082.41 173.213L1116.79 186.367L1081.04 173.986L1072.43 178.848L1087.28 191.938L1071.09 179.603L1062 184.734C1070.05 191.241 1080.09 212.034 1120.15 190.414C1127.93 186.209 1133.08 179.735 1136.48 172.783C1134.07 171.688 1132.65 170.303 1132.72 168.811C1132.75 168.336 1132.93 167.876 1133.24 167.437C1129.72 166.27 1127.53 164.587 1127.63 162.747C1127.77 159.778 1133.78 157.405 1141.57 157.007Z" fill="#452B66"/>
<path d="M1058.27 182.723L1044.37 189.893L1048.72 192.237L1062 184.735C1061.45 184.287 1060.9 183.905 1060.36 183.611C1059.81 183.317 1059.1 183.022 1058.27 182.723Z" fill="#452B66"/>
</svg>
