<svg width="454" height="108" viewBox="0 0 454 108" fill="none" xmlns="http://www.w3.org/2000/svg">
<path d="M68.848 20.856H43.408V83.64H25.936V20.856H0.496V5.4H68.848V20.856ZM88.8183 84.984C83.5063 84.984 78.7703 83.704 74.6103 81.144C70.4503 78.648 67.2183 75.16 64.9143 70.68C62.6103 66.2 61.4583 61.144 61.4583 55.512C61.4583 49.88 62.6103 44.824 64.9143 40.344C67.2183 35.864 70.4503 32.376 74.6103 29.88C78.7703 27.32 83.5063 26.04 88.8183 26.04C96.0503 26.04 101.426 28.408 104.946 33.144V27.384H122.034V83.64H104.946V77.88C101.426 82.616 96.0503 84.984 88.8183 84.984ZM91.5063 70.392C95.6663 70.392 98.9943 69.016 101.49 66.264C103.986 63.448 105.234 59.864 105.234 55.512C105.234 51.16 103.986 47.608 101.49 44.856C98.9943 42.04 95.6663 40.632 91.5063 40.632C87.4743 40.632 84.2423 42.04 81.8103 44.856C79.3783 47.608 78.1623 51.16 78.1623 55.512C78.1623 59.864 79.3783 63.448 81.8103 66.264C84.2423 69.016 87.4743 70.392 91.5063 70.392ZM152.02 83.64H134.932V2.99999H152.02V83.64ZM188.742 63L181.926 70.68V83.64H164.838V2.99999H181.926V50.328L201.798 27.384H220.806L199.206 51.384L221.958 83.64H202.47L188.742 63ZM228.87 2.99999H245.958V33.144C249.478 28.408 254.726 26.04 261.702 26.04C266.054 26.04 269.894 27.064 273.222 29.112C276.55 31.096 279.11 33.976 280.902 37.752C282.758 41.528 283.686 45.976 283.686 51.096V83.64H266.598V53.976C266.598 49.688 265.734 46.424 264.006 44.184C262.342 41.88 259.91 40.728 256.71 40.728C253.382 40.728 250.758 41.976 248.838 44.472C246.918 46.968 245.958 50.392 245.958 54.744V83.64H228.87V2.99999ZM319.725 84.984C314.413 84.984 309.677 83.704 305.517 81.144C301.357 78.648 298.125 75.16 295.821 70.68C293.517 66.2 292.365 61.144 292.365 55.512C292.365 49.88 293.517 44.824 295.821 40.344C298.125 35.864 301.357 32.376 305.517 29.88C309.677 27.32 314.413 26.04 319.725 26.04C326.957 26.04 332.333 28.408 335.853 33.144V27.384H352.941V83.64H335.853V77.88C332.333 82.616 326.957 84.984 319.725 84.984ZM322.413 70.392C326.573 70.392 329.901 69.016 332.397 66.264C334.893 63.448 336.141 59.864 336.141 55.512C336.141 51.16 334.893 47.608 332.397 44.856C329.901 42.04 326.573 40.632 322.413 40.632C318.381 40.632 315.149 42.04 312.717 44.856C310.285 47.608 309.069 51.16 309.069 55.512C309.069 59.864 310.285 63.448 312.717 66.264C315.149 69.016 318.381 70.392 322.413 70.392ZM374.382 21.144C371.374 21.144 368.878 20.152 366.894 18.168C364.91 16.184 363.918 13.688 363.918 10.68C363.918 7.672 364.91 5.176 366.894 3.192C368.878 1.208 371.374 0.215996 374.382 0.215996C377.39 0.215996 379.886 1.208 381.87 3.192C383.854 5.176 384.846 7.672 384.846 10.68C384.846 13.688 383.854 16.184 381.87 18.168C379.886 20.152 377.39 21.144 374.382 21.144ZM364.59 107.544C361.198 107.544 358.35 107.352 356.046 106.968V92.664C357.07 92.792 358.606 92.856 360.654 92.856C362.254 92.856 363.502 92.376 364.398 91.416C365.358 90.52 365.838 89.24 365.838 87.576V27.384H382.926V89.016C382.926 94.52 381.294 98.968 378.03 102.36C374.766 105.816 370.286 107.544 364.59 107.544ZM420.225 84.984C414.913 84.984 410.177 83.704 406.017 81.144C401.857 78.648 398.625 75.16 396.321 70.68C394.017 66.2 392.865 61.144 392.865 55.512C392.865 49.88 394.017 44.824 396.321 40.344C398.625 35.864 401.857 32.376 406.017 29.88C410.177 27.32 414.913 26.04 420.225 26.04C427.457 26.04 432.833 28.408 436.353 33.144V27.384H453.441V83.64H436.353V77.88C432.833 82.616 427.457 84.984 420.225 84.984ZM422.913 70.392C427.073 70.392 430.401 69.016 432.897 66.264C435.393 63.448 436.641 59.864 436.641 55.512C436.641 51.16 435.393 47.608 432.897 44.856C430.401 42.04 427.073 40.632 422.913 40.632C418.881 40.632 415.649 42.04 413.217 44.856C410.785 47.608 409.569 51.16 409.569 55.512C409.569 59.864 410.785 63.448 413.217 66.264C415.649 69.016 418.881 70.392 422.913 70.392Z" fill="#FF3478"/>
</svg>
