<svg width="24" height="24" viewBox="0 0 24 24" fill="current" xmlns="http://www.w3.org/2000/svg">
<path d="M18.2857 13.8947H20.5714V17.6842H24V20.2105H20.5714V24H18.2857V20.2105H14.8571V17.6842H18.2857V13.8947ZM11.4286 0C17.7143 0 22.8571 4.52211 22.8571 10.1053C22.8571 10.8379 22.7657 11.5453 22.6057 12.2274C21.5601 11.6252 20.3918 11.3309 19.2134 11.3728C18.035 11.4147 16.8862 11.7915 15.8778 12.4668C14.8695 13.1421 14.0355 14.0932 13.4564 15.2283C12.8773 16.3634 12.5725 17.6442 12.5714 18.9474L12.6629 20.1474L11.4286 20.2105C10.0114 20.2105 8.65143 19.9832 7.39429 19.5789C4.05714 22.7368 0 22.7368 0 22.7368C2.66286 19.7937 3.08571 17.8105 3.14286 17.0526C1.2 15.2463 0 12.8084 0 10.1053C0 4.52211 5.14286 0 11.4286 0Z" fill="#00956E"/>
</svg>
