<svg width="20" height="20" viewBox="0 0 20 20" fill="none" xmlns="http://www.w3.org/2000/svg">
<path d="M10.501 16C11.9432 15.9998 13.3444 15.5199 14.4839 14.636C15.6235 13.752 16.4367 12.5142 16.7956 11.1173C17.1544 9.72047 17.0385 8.24394 16.4661 6.92018C15.8937 5.59643 14.8973 4.50063 13.6338 3.80532C12.3702 3.11 10.9113 2.85465 9.48675 3.07947C8.06217 3.30429 6.75281 3.99651 5.76481 5.04715C4.77682 6.09779 4.1663 7.44718 4.02937 8.88287C3.89244 10.3186 4.23688 11.759 5.00847 12.9775L4.00097 16L7.02347 14.9925C8.06313 15.6524 9.26954 16.002 10.501 16Z" stroke="#00956E" stroke-linecap="round" stroke-linejoin="round"/>
<path d="M12.1667 9H12.75C12.8163 9 12.8799 9.02371 12.9268 9.0659C12.9737 9.1081 13 9.16533 13 9.225V11.775C13 11.8347 12.9737 11.8919 12.9268 11.9341C12.8799 11.9763 12.8163 12 12.75 12H8.25C8.1837 12 8.12011 11.9763 8.07322 11.9341C8.02634 11.8919 8 11.8347 8 11.775V9.225C8 9.16533 8.02634 9.1081 8.07322 9.0659C8.12011 9.02371 8.1837 9 8.25 9H8.83333M12.1667 9V7.5C12.1667 7.00013 11.8333 6 10.5 6C9.16667 6 8.83333 7.00013 8.83333 7.5V9M12.1667 9H8.83333" stroke="#00956E" stroke-linecap="round" stroke-linejoin="round"/>
</svg>
