<svg width="20" height="20" viewBox="0 0 20 20" fill="none" xmlns="http://www.w3.org/2000/svg">
<path fill-rule="evenodd" clip-rule="evenodd" d="M5.39389 8.79705C5.90825 8.79705 6.40155 8.59489 6.76525 8.23504C7.12896 7.87519 7.33329 7.38713 7.33329 6.87823C7.33329 6.36933 7.12896 5.88127 6.76525 5.52142C6.40155 5.16157 5.90825 4.95941 5.39389 4.95941C4.87953 4.95941 4.38624 5.16157 4.02253 5.52142C3.65883 5.88127 3.4545 6.36933 3.4545 6.87823C3.4545 7.38713 3.65883 7.87519 4.02253 8.23504C4.38624 8.59489 4.87953 8.79705 5.39389 8.79705ZM5.39389 9.75646C5.77592 9.75646 6.15421 9.68201 6.50715 9.53737C6.8601 9.39272 7.1808 9.18071 7.45093 8.91344C7.72107 8.64618 7.93535 8.32888 8.08154 7.97968C8.22774 7.63048 8.30298 7.2562 8.30298 6.87823C8.30298 6.50025 8.22774 6.12598 8.08154 5.77678C7.93535 5.42758 7.72107 5.11028 7.45093 4.84301C7.1808 4.57575 6.8601 4.36374 6.50715 4.21909C6.15421 4.07445 5.77592 4 5.39389 4C4.62235 4 3.88242 4.30324 3.33686 4.84301C2.79129 5.38279 2.4848 6.11488 2.4848 6.87823C2.4848 7.64158 2.79129 8.37367 3.33686 8.91344C3.88242 9.45322 4.62235 9.75646 5.39389 9.75646Z" fill="#00956E"/>
<path fill-rule="evenodd" clip-rule="evenodd" d="M4.28267 8.69731C4.32782 8.74187 4.36364 8.79481 4.38808 8.85309C4.41253 8.91136 4.42511 8.97384 4.42511 9.03694C4.42511 9.10004 4.41253 9.16252 4.38808 9.22079C4.36364 9.27907 4.32782 9.33201 4.28267 9.37657L3.95491 9.69989C3.32416 10.3241 2.96978 11.1706 2.9697 12.0533V13.834C2.9697 13.9612 2.91861 14.0832 2.82769 14.1732C2.73676 14.2632 2.61344 14.3137 2.48485 14.3137C2.35626 14.3137 2.23294 14.2632 2.14201 14.1732C2.05108 14.0832 2 13.9612 2 13.834V12.0533C2.00014 10.9162 2.45671 9.82571 3.26933 9.02159L3.59612 8.69731C3.64116 8.65264 3.69466 8.61719 3.75357 8.59301C3.81247 8.56883 3.87562 8.55638 3.93939 8.55638C4.00317 8.55638 4.06632 8.56883 4.12522 8.59301C4.18412 8.61719 4.23763 8.65264 4.28267 8.69731ZM15.7173 8.40949C15.6722 8.45405 15.6364 8.50698 15.6119 8.56526C15.5875 8.62354 15.5749 8.68602 15.5749 8.74912C15.5749 8.81221 15.5875 8.87469 15.6119 8.93297C15.6364 8.99125 15.6722 9.04419 15.7173 9.08875L16.0451 9.41207C16.3575 9.72113 16.6052 10.088 16.7743 10.4918C16.9433 10.8956 17.0303 11.3284 17.0303 11.7655V13.834C17.0303 13.9612 17.0814 14.0832 17.1723 14.1732C17.2632 14.2632 17.3866 14.3137 17.5152 14.3137C17.6437 14.3137 17.7671 14.2632 17.858 14.1732C17.9489 14.0832 18 13.9612 18 13.834V11.7655C17.9999 10.6284 17.5433 9.53788 16.7307 8.73377L16.4039 8.40949C16.3588 8.36481 16.3053 8.32937 16.2464 8.30519C16.1875 8.281 16.1244 8.26855 16.0606 8.26855C15.9968 8.26855 15.9337 8.281 15.8748 8.30519C15.8159 8.32937 15.7624 8.36481 15.7173 8.40949Z" fill="#00956E"/>
<path fill-rule="evenodd" clip-rule="evenodd" d="M14.1212 8.79705C13.6068 8.79705 13.1135 8.59489 12.7498 8.23504C12.3861 7.87519 12.1818 7.38713 12.1818 6.87823C12.1818 6.36933 12.3861 5.88127 12.7498 5.52142C13.1135 5.16157 13.6068 4.95941 14.1212 4.95941C14.6355 4.95941 15.1288 5.16157 15.4925 5.52142C15.8562 5.88127 16.0606 6.36933 16.0606 6.87823C16.0606 7.38713 15.8562 7.87519 15.4925 8.23504C15.1288 8.59489 14.6355 8.79705 14.1212 8.79705ZM14.1212 9.75646C13.7391 9.75646 13.3608 9.68201 13.0079 9.53737C12.655 9.39272 12.3343 9.18071 12.0641 8.91344C11.794 8.64618 11.5797 8.32888 11.4335 7.97968C11.2873 7.63048 11.2121 7.2562 11.2121 6.87823C11.2121 6.50025 11.2873 6.12598 11.4335 5.77678C11.5797 5.42758 11.794 5.11028 12.0641 4.84301C12.3343 4.57575 12.655 4.36374 13.0079 4.21909C13.3608 4.07445 13.7391 4 14.1212 4C14.8927 4 15.6326 4.30324 16.1782 4.84301C16.7238 5.38279 17.0303 6.11488 17.0303 6.87823C17.0303 7.64158 16.7238 8.37367 16.1782 8.91344C15.6326 9.45322 14.8927 9.75646 14.1212 9.75646ZM9.75753 12.8745C9.11458 12.8745 8.49796 13.1272 8.04333 13.5771C7.58869 14.0269 7.33328 14.6369 7.33328 15.2731V16.5203C7.33328 16.6475 7.2822 16.7695 7.19127 16.8595C7.10035 16.9495 6.97702 17 6.84843 17C6.71985 17 6.59652 16.9495 6.5056 16.8595C6.41467 16.7695 6.36359 16.6475 6.36359 16.5203V15.2731C6.36359 14.3825 6.72116 13.5284 7.35765 12.8986C7.99414 12.2689 8.8574 11.9151 9.75753 11.9151C10.6577 11.9151 11.5209 12.2689 12.1574 12.8986C12.7939 13.5284 13.1515 14.3825 13.1515 15.2731V16.5203C13.1515 16.6475 13.1004 16.7695 13.0095 16.8595C12.9185 16.9495 12.7952 17 12.6666 17C12.538 17 12.4147 16.9495 12.3238 16.8595C12.2329 16.7695 12.1818 16.6475 12.1818 16.5203V15.2731C12.1818 14.9581 12.1191 14.6462 11.9972 14.3552C11.8754 14.0642 11.6968 13.7998 11.4717 13.5771C11.2466 13.3543 10.9794 13.1777 10.6852 13.0571C10.3911 12.9366 10.0759 12.8745 9.75753 12.8745Z" fill="#00956E"/>
<path fill-rule="evenodd" clip-rule="evenodd" d="M9.7576 11.4357C10.272 11.4357 10.7653 11.2336 11.129 10.8737C11.4927 10.5139 11.697 10.0258 11.697 9.5169C11.697 9.008 11.4927 8.51994 11.129 8.16009C10.7653 7.80024 10.272 7.59808 9.7576 7.59808C9.24324 7.59808 8.74995 7.80024 8.38624 8.16009C8.02254 8.51994 7.81821 9.008 7.81821 9.5169C7.81821 10.0258 8.02254 10.5139 8.38624 10.8737C8.74995 11.2336 9.24324 11.4357 9.7576 11.4357ZM9.7576 12.3951C10.5291 12.3951 11.2691 12.0919 11.8146 11.5521C12.3602 11.0123 12.6667 10.2803 12.6667 9.5169C12.6667 8.75355 12.3602 8.02146 11.8146 7.48169C11.2691 6.94191 10.5291 6.63867 9.7576 6.63867C8.98606 6.63867 8.24612 6.94191 7.70056 7.48169C7.155 8.02146 6.84851 8.75355 6.84851 9.5169C6.84851 10.2803 7.155 11.0123 7.70056 11.5521C8.24612 12.0919 8.98606 12.3951 9.7576 12.3951Z" fill="#00956E"/>
</svg>
