<svg width="18" height="18" viewBox="0 0 18 18" fill="none" xmlns="http://www.w3.org/2000/svg">
<g id="CkMoon">
<path id="Vector" d="M16.05 10.2749C15.45 10.4249 14.85 10.4999 14.25 10.4999C10.5 10.4999 7.5 7.4999 7.5 3.7499C7.5 3.1499 7.575 2.5499 7.725 1.9499C7.8 1.7249 7.725 1.4249 7.5 1.1999C7.275 0.974902 7.05 0.899902 6.75 0.974902C3.225 2.0249 0.75 5.3249 0.75 8.9999C0.75 13.5749 4.425 17.2499 9 17.2499C12.675 17.2499 15.975 14.7749 16.95 11.1749C17.025 10.9499 16.95 10.6499 16.725 10.4249C16.575 10.2749 16.275 10.1999 16.05 10.2749Z" fill="#718096"/>
</g>
</svg>
