<svg width="40" height="40" viewBox="0 0 40 40" fill="none" xmlns="http://www.w3.org/2000/svg">
<path d="M8.33 32.7766L8.37 32.7697C12.03 32.1376 14.266 31.3035 15.306 30.8455C16.8372 31.2011 18.4153 31.3802 20 31.3783C28.836 31.3783 36 25.9211 36 19.1892C36 12.4573 28.836 7 20 7C11.164 7 4 12.4573 4 19.1892C4 22.2539 5.486 25.0574 7.94 27.1992C7.76831 28.575 7.4167 29.9292 6.892 31.2356L6.886 31.2547C6.73689 31.6289 6.57414 31.9988 6.398 32.3639C6.24 32.6878 6.546 33.05 6.944 32.9943C7.40732 32.9283 7.86938 32.8557 8.33 32.7766ZM9.93 27.3646C9.95801 27.1097 9.9211 26.8525 9.82188 26.6114C9.72267 26.3703 9.56359 26.1513 9.356 25.9698C7.236 24.1171 6 21.7454 6 19.1892C6 13.6309 12.008 8.74131 20 8.74131C27.992 8.74131 34 13.6309 34 19.1892C34 24.7492 27.992 29.637 20 29.637C18.5902 29.6388 17.1862 29.4796 15.824 29.1634C15.348 29.0523 14.8416 29.0982 14.402 29.2923C13.628 29.6336 11.922 30.2848 9.134 30.8472C9.52295 29.7104 9.78944 28.5445 9.93 27.3646Z" fill="#DBDBDB" stroke="#DBDBDB" stroke-width="0.5"/>
</svg>
