<svg width="40" height="40" viewBox="0 0 40 40" fill="none" xmlns="http://www.w3.org/2000/svg">
<path d="M20 13.75C20 15.4076 19.3415 16.9973 18.1694 18.1694C16.9973 19.3415 15.4076 20 13.75 20C12.0924 20 10.5027 19.3415 9.33058 18.1694C8.15848 16.9973 7.5 15.4076 7.5 13.75C7.5 12.0924 8.15848 10.5027 9.33058 9.33058C10.5027 8.15848 12.0924 7.5 13.75 7.5C15.4076 7.5 16.9973 8.15848 18.1694 9.33058C19.3415 10.5027 20 12.0924 20 13.75ZM28.75 20C30.0761 20 31.3479 19.4732 32.2855 18.5355C33.2232 17.5979 33.75 16.3261 33.75 15C33.75 13.6739 33.2232 12.4021 32.2855 11.4645C31.3479 10.5268 30.0761 10 28.75 10C27.4239 10 26.1521 10.5268 25.2145 11.4645C24.2768 12.4021 23.75 13.6739 23.75 15C23.75 16.3261 24.2768 17.5979 25.2145 18.5355C26.1521 19.4732 27.4239 20 28.75 20ZM26.25 26.485V26.25C26.2518 24.8974 25.813 23.581 25 22.5H33.1825C34.8725 22.5 36.245 23.87 36.245 25.5625C36.245 25.5625 36.245 31.25 28.745 31.25C27.25 31.25 26.0525 31.025 25.095 30.6625C25.6922 29.5682 26.0717 28.3686 26.2125 27.13C26.2275 26.975 26.2375 26.8425 26.2425 26.7325L26.25 26.485ZM23.75 26.25C23.75 25.2554 23.3549 24.3016 22.6517 23.5983C21.9484 22.8951 20.9946 22.5 20 22.5H7.5C6.50544 22.5 5.55161 22.8951 4.84835 23.5983C4.14509 24.3016 3.75 25.2554 3.75 26.25V26.4375C3.75 26.4375 3.75 33.75 13.75 33.75C23.28 33.75 23.7275 27.11 23.75 26.485V26.25Z" fill="#DBDBDD" fill-opacity="0.733333"/>
</svg>
