<svg width="40" height="40" viewBox="0 0 40 40" fill="none" xmlns="http://www.w3.org/2000/svg">
<path d="M11.6667 20C11.6667 20.8841 11.3155 21.7319 10.6904 22.357C10.0652 22.9822 9.21739 23.3334 8.33333 23.3334C7.44928 23.3334 6.60143 22.9822 5.97631 22.357C5.35119 21.7319 5 20.8841 5 20C5 19.116 5.35119 18.2681 5.97631 17.643C6.60143 17.0179 7.44928 16.6667 8.33333 16.6667C9.21739 16.6667 10.0652 17.0179 10.6904 17.643C11.3155 18.2681 11.6667 19.116 11.6667 20ZM23.3333 20C23.3333 20.8841 22.9821 21.7319 22.357 22.357C21.7319 22.9822 20.8841 23.3334 20 23.3334C19.1159 23.3334 18.2681 22.9822 17.643 22.357C17.0179 21.7319 16.6667 20.8841 16.6667 20C16.6667 19.116 17.0179 18.2681 17.643 17.643C18.2681 17.0179 19.1159 16.6667 20 16.6667C20.8841 16.6667 21.7319 17.0179 22.357 17.643C22.9821 18.2681 23.3333 19.116 23.3333 20ZM35 20C35 20.8841 34.6488 21.7319 34.0237 22.357C33.3986 22.9822 32.5507 23.3334 31.6667 23.3334C30.7826 23.3334 29.9348 22.9822 29.3096 22.357C28.6845 21.7319 28.3333 20.8841 28.3333 20C28.3333 19.116 28.6845 18.2681 29.3096 17.643C29.9348 17.0179 30.7826 16.6667 31.6667 16.6667C32.5507 16.6667 33.3986 17.0179 34.0237 17.643C34.6488 18.2681 35 19.116 35 20Z" fill="#DBDBDB"/>
</svg>
