<svg width="34" height="27" viewBox="0 0 34 27" fill="none" xmlns="http://www.w3.org/2000/svg">
<path d="M17 6.75C17 8.4076 16.3415 9.99732 15.1694 11.1694C13.9973 12.3415 12.4076 13 10.75 13C9.0924 13 7.50269 12.3415 6.33058 11.1694C5.15848 9.99732 4.5 8.4076 4.5 6.75C4.5 5.0924 5.15848 3.50269 6.33058 2.33058C7.50269 1.15848 9.0924 0.5 10.75 0.5C12.4076 0.5 13.9973 1.15848 15.1694 2.33058C16.3415 3.50269 17 5.0924 17 6.75ZM25.75 13C27.0761 13 28.3479 12.4732 29.2855 11.5355C30.2232 10.5979 30.75 9.32608 30.75 8C30.75 6.67392 30.2232 5.40215 29.2855 4.46447C28.3479 3.52678 27.0761 3 25.75 3C24.4239 3 23.1521 3.52678 22.2145 4.46447C21.2768 5.40215 20.75 6.67392 20.75 8C20.75 9.32608 21.2768 10.5979 22.2145 11.5355C23.1521 12.4732 24.4239 13 25.75 13ZM23.25 19.485V19.25C23.2518 17.8974 22.813 16.581 22 15.5H30.1825C31.8725 15.5 33.245 16.87 33.245 18.5625C33.245 18.5625 33.245 24.25 25.745 24.25C24.25 24.25 23.0525 24.025 22.095 23.6625C22.6922 22.5682 23.0717 21.3686 23.2125 20.13C23.2275 19.975 23.2375 19.8425 23.2425 19.7325L23.25 19.485ZM20.75 19.25C20.75 18.2554 20.3549 17.3016 19.6517 16.5983C18.9484 15.8951 17.9946 15.5 17 15.5H4.5C3.50544 15.5 2.55161 15.8951 1.84835 16.5983C1.14509 17.3016 0.75 18.2554 0.75 19.25V19.4375C0.75 19.4375 0.75 26.75 10.75 26.75C20.28 26.75 20.7275 20.11 20.75 19.485V19.25Z" fill="#00956E"/>
</svg>
