<svg width="47" height="31" viewBox="0 0 47 31" fill="none" xmlns="http://www.w3.org/2000/svg">
<path d="M41.67 29.7766L41.63 29.7697C37.97 29.1376 35.734 28.3035 34.694 27.8455C33.1628 28.2011 31.5847 28.3802 30 28.3783C21.164 28.3783 14 22.9211 14 16.1892C14 9.45727 21.164 4 30 4C38.836 4 46 9.45727 46 16.1892C46 19.2539 44.514 22.0574 42.06 24.1992C42.2317 25.575 42.5833 26.9292 43.108 28.2356L43.114 28.2547C43.2631 28.6289 43.4259 28.9988 43.602 29.3639C43.76 29.6878 43.454 30.05 43.056 29.9943C42.5927 29.9283 42.1306 29.8557 41.67 29.7766ZM40.07 24.3646C40.042 24.1097 40.0789 23.8525 40.1781 23.6114C40.2773 23.3703 40.4364 23.1513 40.644 22.9698C42.764 21.1171 44 18.7454 44 16.1892C44 10.6309 37.992 5.74131 30 5.74131C22.008 5.74131 16 10.6309 16 16.1892C16 21.7492 22.008 26.637 30 26.637C31.4098 26.6388 32.8138 26.4796 34.176 26.1634C34.652 26.0523 35.1584 26.0982 35.598 26.2923C36.372 26.6336 38.078 27.2848 40.866 27.8472C40.477 26.7104 40.2106 25.5445 40.07 24.3646Z" fill="#00956E" stroke="#00956E" stroke-width="0.5"/>
<path d="M32 12.1892C32 18.9211 24.836 24.3783 16 24.3783C14.4153 24.3802 12.8372 24.2011 11.306 23.8455C10.138 24.3609 7.456 25.35 2.944 25.9943C2.544 26.05 2.24 25.6878 2.398 25.3639C3.106 23.9082 3.746 21.9684 3.938 20.1992C1.488 18.0574 0 15.2539 0 12.1892C0 5.45727 7.164 0 16 0C24.836 0 32 5.45727 32 12.1892ZM10 12.1892C10 11.7274 9.78929 11.2844 9.41421 10.9579C9.03914 10.6313 8.53043 10.4479 8 10.4479C7.46957 10.4479 6.96086 10.6313 6.58579 10.9579C6.21071 11.2844 6 11.7274 6 12.1892C6 12.651 6.21071 13.0939 6.58579 13.4205C6.96086 13.747 7.46957 13.9305 8 13.9305C8.53043 13.9305 9.03914 13.747 9.41421 13.4205C9.78929 13.0939 10 12.651 10 12.1892ZM18 12.1892C18 11.7274 17.7893 11.2844 17.4142 10.9579C17.0391 10.6313 16.5304 10.4479 16 10.4479C15.4696 10.4479 14.9609 10.6313 14.5858 10.9579C14.2107 11.2844 14 11.7274 14 12.1892C14 12.651 14.2107 13.0939 14.5858 13.4205C14.9609 13.747 15.4696 13.9305 16 13.9305C16.5304 13.9305 17.0391 13.747 17.4142 13.4205C17.7893 13.0939 18 12.651 18 12.1892ZM24 13.9305C24.5304 13.9305 25.0391 13.747 25.4142 13.4205C25.7893 13.0939 26 12.651 26 12.1892C26 11.7274 25.7893 11.2844 25.4142 10.9579C25.0391 10.6313 24.5304 10.4479 24 10.4479C23.4696 10.4479 22.9609 10.6313 22.5858 10.9579C22.2107 11.2844 22 11.7274 22 12.1892C22 12.651 22.2107 13.0939 22.5858 13.4205C22.9609 13.747 23.4696 13.9305 24 13.9305Z" fill="#00956E"/>
<rect x="5" y="9" width="21" height="6" fill="#00956E"/>
</svg>
