<svg width="20" height="20" viewBox="0 0 20 20" fill="none" xmlns="http://www.w3.org/2000/svg">
<path d="M14.7893 13.779C14.9235 13.9132 14.9988 14.0951 14.9988 14.2848C14.9988 14.4745 14.9235 14.6564 14.7893 14.7905C14.6552 14.9246 14.4732 15 14.2835 15C14.0938 15 13.9119 14.9246 13.7778 14.7905L10 11.0118L6.22103 14.7893C6.08689 14.9235 5.90496 14.9988 5.71526 14.9988C5.52556 14.9988 5.34363 14.9235 5.2095 14.7893C5.07536 14.6552 5 14.4733 5 14.2836C5 14.0939 5.07536 13.912 5.2095 13.7779L8.98847 10.0003L5.21069 6.22155C5.07655 6.08742 5.00119 5.9055 5.00119 5.71581C5.00119 5.52613 5.07655 5.34421 5.21069 5.21008C5.34482 5.07595 5.52675 5.00059 5.71645 5.00059C5.90615 5.00059 6.08808 5.07595 6.22222 5.21008L10 8.98882L13.779 5.20948C13.9131 5.07535 14.095 5 14.2847 5C14.4744 5 14.6564 5.07535 14.7905 5.20948C14.9246 5.34361 15 5.52553 15 5.71522C15 5.90491 14.9246 6.08683 14.7905 6.22096L11.0115 10.0003L14.7893 13.779Z" fill="#950000"/>
</svg>
