<svg width="51" height="49" viewBox="0 0 51 49" fill="none" xmlns="http://www.w3.org/2000/svg">
<g clip-path="url(#clip0_66_303)">
<path d="M27.7524 6.70277C27.1547 6.12926 26.3445 5.80713 25.4999 5.80713C24.6552 5.80713 23.845 6.12926 23.2474 6.70277L11.222 18.2504C10.624 18.8249 10.2881 19.6042 10.2881 20.4166C10.2881 21.2291 10.624 22.0083 11.222 22.5828C11.8199 23.1574 12.631 23.4801 13.4766 23.4801C14.3223 23.4801 15.1333 23.1574 15.7312 22.5828L22.3124 16.2619V39.8125C22.3124 40.6247 22.6482 41.4037 23.246 41.978C23.8437 42.5523 24.6545 42.875 25.4999 42.875C26.3452 42.875 27.156 42.5523 27.7538 41.978C28.3515 41.4037 28.6874 40.6247 28.6874 39.8125V16.2619L35.2664 22.5828C35.5624 22.8673 35.9139 23.093 36.3008 23.2469C36.6876 23.4009 37.1023 23.4801 37.521 23.4801C37.9397 23.4801 38.3543 23.4009 38.7412 23.2469C39.128 23.093 39.4795 22.8673 39.7756 22.5828C40.0717 22.2984 40.3066 21.9607 40.4668 21.589C40.627 21.2173 40.7095 20.8189 40.7095 20.4166C40.7095 20.0143 40.627 19.616 40.4668 19.2443C40.3066 18.8726 40.0717 18.5349 39.7756 18.2504L27.7524 6.70277Z" fill="#05664C"/>
</g>
<defs>
<clipPath id="clip0_66_303">
<rect width="51" height="49" fill="white"/>
</clipPath>
</defs>
</svg>
