<svg width="358" height="336" viewBox="0 0 358 336" fill="none" xmlns="http://www.w3.org/2000/svg">
<rect x="13.5913" y="124.588" width="315.623" height="124.588" fill="white"/>
<path d="M275.782 2.95086C271.416 -1.18115 264.337 -0.878752 259.985 3.26306C240.52 21.7696 223.826 44.0337 210.712 68.99C189.454 66.0612 167.863 66.0612 146.605 68.99C133.998 44.7262 117.386 22.5413 97.4013 3.27869C93.053 -0.869765 85.971 -1.17848 81.601 2.95265C31.8188 50.0199 0 121.314 0 201.397C0 275.783 79.9686 336 178.697 336C277.352 336 357.394 275.783 357.394 201.397C357.394 121.313 325.506 50.0172 275.782 2.95086ZM85.6256 228.601C64.9245 224.775 47.3536 210.536 37.2285 190.77C47.3536 171.004 64.9245 156.765 85.6256 152.94V228.601ZM107.963 228.601V152.94C128.587 156.765 146.235 171.004 156.36 190.77C146.235 210.536 128.587 224.775 107.963 228.601ZM249.431 228.601C228.73 224.775 211.159 210.536 201.034 190.77C211.159 171.004 228.73 156.765 249.431 152.94V228.601ZM271.768 228.601V152.94C292.393 156.765 310.04 171.004 320.165 190.77C310.04 210.536 292.393 224.775 271.768 228.601Z" fill="black"/>
<path d="M302.873 216.703C305.176 206.824 316.841 194.805 316.841 194.805L319.862 191.03C319.862 191.03 340.249 208.019 341.759 216.703C343.269 225.386 341.759 234.447 341.759 234.447C341.759 234.447 338.664 243.03 334.208 246.151C331.719 247.894 330.019 248.594 327.035 249.171C324.285 249.703 322.633 249.58 319.862 249.171C316.31 248.647 314.193 248.101 311.178 246.151C306.473 243.106 304.754 239.726 302.873 234.447C300.547 227.919 301.299 223.451 302.873 216.703Z" fill="#59CDE6" stroke="#59CDE6"/>
</svg>
