<svg width="185" height="46" viewBox="0 0 185 46" fill="none" xmlns="http://www.w3.org/2000/svg">
<g filter="url(#filter0_d_141_28)">
<path d="M34.4805 33.4111C32.8529 34.8109 31.0299 35.8851 29.0117 36.6338C26.9935 37.3825 24.902 37.7568 22.7373 37.7568C21.0771 37.7568 19.474 37.5371 17.9277 37.0977C16.3978 36.6745 14.9574 36.0723 13.6064 35.291C12.2718 34.4935 11.0511 33.5413 9.94434 32.4346C8.83757 31.3278 7.88542 30.1071 7.08789 28.7725C6.30664 27.4215 5.69629 25.9811 5.25684 24.4512C4.83366 22.9049 4.62207 21.3018 4.62207 19.6416C4.62207 17.9814 4.83366 16.3783 5.25684 14.832C5.69629 13.2858 6.30664 11.8454 7.08789 10.5107C7.88542 9.15983 8.83757 7.93099 9.94434 6.82422C11.0511 5.71745 12.2718 4.77344 13.6064 3.99219C14.9574 3.19466 16.3978 2.58431 17.9277 2.16113C19.474 1.72168 21.0771 1.50195 22.7373 1.50195C24.902 1.50195 26.9935 1.8763 29.0117 2.625C31.0299 3.35742 32.8529 4.43164 34.4805 5.84766L30.7695 11.9512C29.7441 10.8444 28.5316 9.99805 27.1318 9.41211C25.7321 8.8099 24.2673 8.50879 22.7373 8.50879C21.1911 8.50879 19.7425 8.80176 18.3916 9.3877C17.0407 9.97363 15.8607 10.7712 14.8516 11.7803C13.8424 12.7731 13.0449 13.9531 12.459 15.3203C11.873 16.6712 11.5801 18.1117 11.5801 19.6416C11.5801 21.1715 11.873 22.612 12.459 23.9629C13.0449 25.2975 13.8424 26.4694 14.8516 27.4785C15.8607 28.4876 17.0407 29.2852 18.3916 29.8711C19.7425 30.457 21.1911 30.75 22.7373 30.75C24.2673 30.75 25.7321 30.457 27.1318 29.8711C28.5316 29.2689 29.7441 28.4144 30.7695 27.3076L34.4805 33.4111ZM62.2393 37H60.6279L58.04 33.4111C57.4053 33.9808 56.7298 34.5179 56.0137 35.0225C55.3138 35.5107 54.5732 35.9421 53.792 36.3164C53.0107 36.6745 52.2051 36.9593 51.375 37.1709C50.5612 37.3825 49.7311 37.4883 48.8848 37.4883C47.0456 37.4883 45.3122 37.179 43.6846 36.5605C42.0732 35.9421 40.6572 35.0469 39.4365 33.875C38.2321 32.6868 37.2799 31.2383 36.5801 29.5293C35.8802 27.8203 35.5303 25.8753 35.5303 23.6943C35.5303 21.6598 35.8802 19.7962 36.5801 18.1035C37.2799 16.3945 38.2321 14.9297 39.4365 13.709C40.6572 12.4883 42.0732 11.5443 43.6846 10.877C45.3122 10.1934 47.0456 9.85156 48.8848 9.85156C49.7311 9.85156 50.5693 9.95736 51.3994 10.1689C52.2295 10.3805 53.0352 10.6735 53.8164 11.0479C54.5977 11.4222 55.3382 11.8617 56.0381 12.3662C56.7542 12.8708 57.4215 13.416 58.04 14.002L60.6279 10.9014H62.2393V37ZM55.5254 23.6943C55.5254 22.7829 55.3464 21.904 54.9883 21.0576C54.6465 20.195 54.1745 19.4382 53.5723 18.7871C52.9701 18.1198 52.262 17.5908 51.4482 17.2002C50.6507 16.7933 49.7962 16.5898 48.8848 16.5898C47.9733 16.5898 47.1107 16.7445 46.2969 17.0537C45.4993 17.363 44.7995 17.8187 44.1973 18.4209C43.6113 19.0231 43.1475 19.7718 42.8057 20.667C42.4639 21.5459 42.293 22.555 42.293 23.6943C42.293 24.8337 42.4639 25.8509 42.8057 26.7461C43.1475 27.625 43.6113 28.3656 44.1973 28.9678C44.7995 29.57 45.4993 30.0257 46.2969 30.335C47.1107 30.6442 47.9733 30.7988 48.8848 30.7988C49.7962 30.7988 50.6507 30.6035 51.4482 30.2129C52.262 29.806 52.9701 29.277 53.5723 28.626C54.1745 27.9587 54.6465 27.2018 54.9883 26.3555C55.3464 25.4928 55.5254 24.6058 55.5254 23.6943ZM80.4521 37C78.8408 37 77.3271 36.6989 75.9111 36.0967C74.4951 35.4782 73.25 34.64 72.1758 33.582C71.1178 32.5078 70.2796 31.2627 69.6611 29.8467C69.0589 28.4307 68.7578 26.917 68.7578 25.3057V17.542H65.5107V10.9014H68.7578V0.452148H75.3984V10.9014H85.5059V17.542H75.3984V25.3057C75.3984 26.0055 75.5286 26.6647 75.7891 27.2832C76.0495 27.8854 76.4076 28.4144 76.8633 28.8701C77.319 29.3258 77.8561 29.6921 78.4746 29.9688C79.0931 30.2292 79.7523 30.3594 80.4521 30.3594H85.5059V37H80.4521ZM104.671 37H97.6885V8.99707H87.166V1.99023H115.169V8.99707H104.671V37ZM139.388 37H137.776L135.188 33.4111C134.554 33.9808 133.878 34.5179 133.162 35.0225C132.462 35.5107 131.722 35.9421 130.94 36.3164C130.159 36.6745 129.354 36.9593 128.523 37.1709C127.71 37.3825 126.88 37.4883 126.033 37.4883C124.194 37.4883 122.461 37.179 120.833 36.5605C119.222 35.9421 117.806 35.0469 116.585 33.875C115.381 32.6868 114.428 31.2383 113.729 29.5293C113.029 27.8203 112.679 25.8753 112.679 23.6943C112.679 21.6598 113.029 19.7962 113.729 18.1035C114.428 16.3945 115.381 14.9297 116.585 13.709C117.806 12.4883 119.222 11.5443 120.833 10.877C122.461 10.1934 124.194 9.85156 126.033 9.85156C126.88 9.85156 127.718 9.95736 128.548 10.1689C129.378 10.3805 130.184 10.6735 130.965 11.0479C131.746 11.4222 132.487 11.8617 133.187 12.3662C133.903 12.8708 134.57 13.416 135.188 14.002L137.776 10.9014H139.388V37ZM132.674 23.6943C132.674 22.7829 132.495 21.904 132.137 21.0576C131.795 20.195 131.323 19.4382 130.721 18.7871C130.118 18.1198 129.41 17.5908 128.597 17.2002C127.799 16.7933 126.945 16.5898 126.033 16.5898C125.122 16.5898 124.259 16.7445 123.445 17.0537C122.648 17.363 121.948 17.8187 121.346 18.4209C120.76 19.0231 120.296 19.7718 119.954 20.667C119.612 21.5459 119.441 22.555 119.441 23.6943C119.441 24.8337 119.612 25.8509 119.954 26.7461C120.296 27.625 120.76 28.3656 121.346 28.9678C121.948 29.57 122.648 30.0257 123.445 30.335C124.259 30.6442 125.122 30.7988 126.033 30.7988C126.945 30.7988 127.799 30.6035 128.597 30.2129C129.41 29.806 130.118 29.277 130.721 28.626C131.323 27.9587 131.795 27.2018 132.137 26.3555C132.495 25.4928 132.674 24.6058 132.674 23.6943ZM151.204 37H144.49V0.452148H151.204V37ZM163.021 37H156.307V0.452148H163.021V23.499L172.957 10.9014H180.623L171.956 21.79L180.623 37H172.957L167.659 27.5029L163.021 33.6553V37Z" fill="black"/>
<path d="M34.4805 33.4111C32.8529 34.8109 31.0299 35.8851 29.0117 36.6338C26.9935 37.3825 24.902 37.7568 22.7373 37.7568C21.0771 37.7568 19.474 37.5371 17.9277 37.0977C16.3978 36.6745 14.9574 36.0723 13.6064 35.291C12.2718 34.4935 11.0511 33.5413 9.94434 32.4346C8.83757 31.3278 7.88542 30.1071 7.08789 28.7725C6.30664 27.4215 5.69629 25.9811 5.25684 24.4512C4.83366 22.9049 4.62207 21.3018 4.62207 19.6416C4.62207 17.9814 4.83366 16.3783 5.25684 14.832C5.69629 13.2858 6.30664 11.8454 7.08789 10.5107C7.88542 9.15983 8.83757 7.93099 9.94434 6.82422C11.0511 5.71745 12.2718 4.77344 13.6064 3.99219C14.9574 3.19466 16.3978 2.58431 17.9277 2.16113C19.474 1.72168 21.0771 1.50195 22.7373 1.50195C24.902 1.50195 26.9935 1.8763 29.0117 2.625C31.0299 3.35742 32.8529 4.43164 34.4805 5.84766L30.7695 11.9512C29.7441 10.8444 28.5316 9.99805 27.1318 9.41211C25.7321 8.8099 24.2673 8.50879 22.7373 8.50879C21.1911 8.50879 19.7425 8.80176 18.3916 9.3877C17.0407 9.97363 15.8607 10.7712 14.8516 11.7803C13.8424 12.7731 13.0449 13.9531 12.459 15.3203C11.873 16.6712 11.5801 18.1117 11.5801 19.6416C11.5801 21.1715 11.873 22.612 12.459 23.9629C13.0449 25.2975 13.8424 26.4694 14.8516 27.4785C15.8607 28.4876 17.0407 29.2852 18.3916 29.8711C19.7425 30.457 21.1911 30.75 22.7373 30.75C24.2673 30.75 25.7321 30.457 27.1318 29.8711C28.5316 29.2689 29.7441 28.4144 30.7695 27.3076L34.4805 33.4111ZM62.2393 37H60.6279L58.04 33.4111C57.4053 33.9808 56.7298 34.5179 56.0137 35.0225C55.3138 35.5107 54.5732 35.9421 53.792 36.3164C53.0107 36.6745 52.2051 36.9593 51.375 37.1709C50.5612 37.3825 49.7311 37.4883 48.8848 37.4883C47.0456 37.4883 45.3122 37.179 43.6846 36.5605C42.0732 35.9421 40.6572 35.0469 39.4365 33.875C38.2321 32.6868 37.2799 31.2383 36.5801 29.5293C35.8802 27.8203 35.5303 25.8753 35.5303 23.6943C35.5303 21.6598 35.8802 19.7962 36.5801 18.1035C37.2799 16.3945 38.2321 14.9297 39.4365 13.709C40.6572 12.4883 42.0732 11.5443 43.6846 10.877C45.3122 10.1934 47.0456 9.85156 48.8848 9.85156C49.7311 9.85156 50.5693 9.95736 51.3994 10.1689C52.2295 10.3805 53.0352 10.6735 53.8164 11.0479C54.5977 11.4222 55.3382 11.8617 56.0381 12.3662C56.7542 12.8708 57.4215 13.416 58.04 14.002L60.6279 10.9014H62.2393V37ZM55.5254 23.6943C55.5254 22.7829 55.3464 21.904 54.9883 21.0576C54.6465 20.195 54.1745 19.4382 53.5723 18.7871C52.9701 18.1198 52.262 17.5908 51.4482 17.2002C50.6507 16.7933 49.7962 16.5898 48.8848 16.5898C47.9733 16.5898 47.1107 16.7445 46.2969 17.0537C45.4993 17.363 44.7995 17.8187 44.1973 18.4209C43.6113 19.0231 43.1475 19.7718 42.8057 20.667C42.4639 21.5459 42.293 22.555 42.293 23.6943C42.293 24.8337 42.4639 25.8509 42.8057 26.7461C43.1475 27.625 43.6113 28.3656 44.1973 28.9678C44.7995 29.57 45.4993 30.0257 46.2969 30.335C47.1107 30.6442 47.9733 30.7988 48.8848 30.7988C49.7962 30.7988 50.6507 30.6035 51.4482 30.2129C52.262 29.806 52.9701 29.277 53.5723 28.626C54.1745 27.9587 54.6465 27.2018 54.9883 26.3555C55.3464 25.4928 55.5254 24.6058 55.5254 23.6943ZM80.4521 37C78.8408 37 77.3271 36.6989 75.9111 36.0967C74.4951 35.4782 73.25 34.64 72.1758 33.582C71.1178 32.5078 70.2796 31.2627 69.6611 29.8467C69.0589 28.4307 68.7578 26.917 68.7578 25.3057V17.542H65.5107V10.9014H68.7578V0.452148H75.3984V10.9014H85.5059V17.542H75.3984V25.3057C75.3984 26.0055 75.5286 26.6647 75.7891 27.2832C76.0495 27.8854 76.4076 28.4144 76.8633 28.8701C77.319 29.3258 77.8561 29.6921 78.4746 29.9688C79.0931 30.2292 79.7523 30.3594 80.4521 30.3594H85.5059V37H80.4521ZM104.671 37H97.6885V8.99707H87.166V1.99023H115.169V8.99707H104.671V37ZM139.388 37H137.776L135.188 33.4111C134.554 33.9808 133.878 34.5179 133.162 35.0225C132.462 35.5107 131.722 35.9421 130.94 36.3164C130.159 36.6745 129.354 36.9593 128.523 37.1709C127.71 37.3825 126.88 37.4883 126.033 37.4883C124.194 37.4883 122.461 37.179 120.833 36.5605C119.222 35.9421 117.806 35.0469 116.585 33.875C115.381 32.6868 114.428 31.2383 113.729 29.5293C113.029 27.8203 112.679 25.8753 112.679 23.6943C112.679 21.6598 113.029 19.7962 113.729 18.1035C114.428 16.3945 115.381 14.9297 116.585 13.709C117.806 12.4883 119.222 11.5443 120.833 10.877C122.461 10.1934 124.194 9.85156 126.033 9.85156C126.88 9.85156 127.718 9.95736 128.548 10.1689C129.378 10.3805 130.184 10.6735 130.965 11.0479C131.746 11.4222 132.487 11.8617 133.187 12.3662C133.903 12.8708 134.57 13.416 135.188 14.002L137.776 10.9014H139.388V37ZM132.674 23.6943C132.674 22.7829 132.495 21.904 132.137 21.0576C131.795 20.195 131.323 19.4382 130.721 18.7871C130.118 18.1198 129.41 17.5908 128.597 17.2002C127.799 16.7933 126.945 16.5898 126.033 16.5898C125.122 16.5898 124.259 16.7445 123.445 17.0537C122.648 17.363 121.948 17.8187 121.346 18.4209C120.76 19.0231 120.296 19.7718 119.954 20.667C119.612 21.5459 119.441 22.555 119.441 23.6943C119.441 24.8337 119.612 25.8509 119.954 26.7461C120.296 27.625 120.76 28.3656 121.346 28.9678C121.948 29.57 122.648 30.0257 123.445 30.335C124.259 30.6442 125.122 30.7988 126.033 30.7988C126.945 30.7988 127.799 30.6035 128.597 30.2129C129.41 29.806 130.118 29.277 130.721 28.626C131.323 27.9587 131.795 27.2018 132.137 26.3555C132.495 25.4928 132.674 24.6058 132.674 23.6943ZM151.204 37H144.49V0.452148H151.204V37ZM163.021 37H156.307V0.452148H163.021V23.499L172.957 10.9014H180.623L171.956 21.79L180.623 37H172.957L167.659 27.5029L163.021 33.6553V37Z" fill="black"/>
</g>
<defs>
<filter id="filter0_d_141_28" x="0.62207" y="0.452148" width="184.001" height="45.3047" filterUnits="userSpaceOnUse" color-interpolation-filters="sRGB">
<feFlood flood-opacity="0" result="BackgroundImageFix"/>
<feColorMatrix in="SourceAlpha" type="matrix" values="0 0 0 0 0 0 0 0 0 0 0 0 0 0 0 0 0 0 127 0" result="hardAlpha"/>
<feOffset dy="4"/>
<feGaussianBlur stdDeviation="2"/>
<feComposite in2="hardAlpha" operator="out"/>
<feColorMatrix type="matrix" values="0 0 0 0 0 0 0 0 0 0 0 0 0 0 0 0 0 0 0.25 0"/>
<feBlend mode="normal" in2="BackgroundImageFix" result="effect1_dropShadow_141_28"/>
<feBlend mode="normal" in="SourceGraphic" in2="effect1_dropShadow_141_28" result="shape"/>
</filter>
</defs>
</svg>
