<?xml version="1.0" encoding="iso-8859-1"?>
<!-- Uploaded to: SVG Repo, www.svgrepo.com, Generator: SVG Repo Mixer Tools -->
<svg height="800px" width="800px" version="1.1" id="Layer_1" xmlns="http://www.w3.org/2000/svg" xmlns:xlink="http://www.w3.org/1999/xlink" 
	 viewBox="0 0 512 512" xml:space="preserve">
<g>
	<path style="fill:#F9EBB0;" d="M132.414,238.345c-48.675,0-88.276-39.601-88.276-88.276s39.601-88.276,88.276-88.276
		c9.922,0,19.827,1.721,29.431,5.12c3.522,1.254,5.879,4.582,5.879,8.324c0,3.734-2.357,7.071-5.879,8.324
		c-28.16,9.966-47.086,36.696-47.086,66.507s18.926,56.541,47.086,66.507c3.522,1.254,5.879,4.59,5.879,8.324
		c0,3.743-2.357,7.071-5.879,8.324C152.241,236.623,142.336,238.345,132.414,238.345"/>
	<g>
		<path style="fill:#F29C1F;" d="M220.664,114.759c3.354,2.516,6.338,5.508,8.854,8.854c2.516-3.346,5.5-6.338,8.854-8.854
			c-3.354-2.516-6.338-5.508-8.854-8.854C227.002,109.25,224.019,112.243,220.664,114.759 M229.518,158.897
			c-4.882,0-8.828-3.955-8.828-8.828c0-14.601-11.882-26.483-26.483-26.483c-4.882,0-8.828-3.955-8.828-8.828
			s3.946-8.828,8.828-8.828c14.601,0,26.483-11.882,26.483-26.483c0-4.873,3.946-8.828,8.828-8.828c4.882,0,8.828,3.955,8.828,8.828
			c0,14.601,11.882,26.483,26.483,26.483c4.882,0,8.828,3.955,8.828,8.828s-3.946,8.828-8.828,8.828
			c-14.601,0-26.483,11.882-26.483,26.483C238.346,154.942,234.4,158.897,229.518,158.897"/>
		<path style="fill:#F29C1F;" d="M44.138,291.31c-4.882,0-8.828-3.955-8.828-8.828v-35.31c0-4.873,3.946-8.828,8.828-8.828
			s8.828,3.955,8.828,8.828v35.31C52.966,287.356,49.02,291.31,44.138,291.31"/>
		<path style="fill:#F29C1F;" d="M61.793,273.655h-35.31c-4.882,0-8.828-3.955-8.828-8.828S21.601,256,26.483,256h35.31
			c4.882,0,8.828,3.955,8.828,8.828S66.675,273.655,61.793,273.655"/>
	</g>
	<g>
		<path style="fill:#F0C419;" d="M35.31,70.621c0,4.873-3.955,8.828-8.828,8.828s-8.828-3.955-8.828-8.828s3.955-8.828,8.828-8.828
			S35.31,65.748,35.31,70.621"/>
		<path style="fill:#F0C419;" d="M176.552,256c0,4.873-3.955,8.828-8.828,8.828s-8.828-3.955-8.828-8.828s3.955-8.828,8.828-8.828
			S176.552,251.127,176.552,256"/>
	</g>
	<path style="fill:#556080;" d="M0,414.897c0,0,81.814-88.276,159.753-88.276c0,0,36.078,1.933,30.923,25.768
		c0,0,13.859-4.087,30.252-9.437c63.815-20.851,134.171-2.251,178.697,47.996c0.777,0.883,1.562,1.766,2.339,2.666
		c0,0,75.573,56.594,110.036,56.594H0V414.897z"/>
</g>
</svg>