   <svg width="315" height="405" viewBox="0 0 315 405" fill="none" xmlns="http://www.w3.org/2000/svg">
<path fill-rule="evenodd" clip-rule="evenodd" d="M157.5 9.87185e-05C132.35 -0.0356219 108.036 9.6237 89.0366 27.1984C70.0372 44.773 57.6328 69.0789 54.109 95.6378C50.5852 122.197 56.1793 149.219 69.8607 171.726C83.5421 194.233 104.389 210.709 128.56 218.117C94.2123 222.566 64.7548 235.514 42.5466 258.863C14.2973 288.532 0 332.744 0 390.426C0 394.291 1.43963 397.998 4.0022 400.731C6.56477 403.465 10.0404 405 13.6644 405C17.2884 405 20.764 403.465 23.3266 400.731C25.8891 397.998 27.3288 394.291 27.3288 390.426C27.3288 337.653 40.3603 302.063 61.7342 279.603C83.137 257.114 115.126 245.455 157.5 245.455C199.874 245.455 231.863 257.114 253.295 279.603C274.64 302.093 287.671 337.653 287.671 390.426C287.671 394.291 289.111 397.998 291.673 400.731C294.236 403.465 297.712 405 301.336 405C304.96 405 308.435 403.465 310.998 400.731C313.56 397.998 315 394.291 315 390.426C315 332.744 300.703 288.563 272.425 258.863C250.274 235.544 220.788 222.566 186.44 218.117C210.53 210.626 231.283 194.125 244.893 171.639C258.503 149.154 264.059 122.19 260.543 95.6903C257.027 69.1904 244.674 44.9296 225.749 27.3547C206.824 9.77987 182.594 0.0683203 157.5 9.87185e-05ZM80.5479 111.222C80.5479 89.4543 88.6554 68.5785 103.087 53.1867C117.518 37.7949 137.091 29.1478 157.5 29.1478C177.909 29.1478 197.482 37.7949 211.913 53.1867C226.345 68.5785 234.452 89.4543 234.452 111.222C234.452 132.989 226.345 153.865 211.913 169.257C197.482 184.648 177.909 193.296 157.5 193.296C137.091 193.296 117.518 184.648 103.087 169.257C88.6554 153.865 80.5479 132.989 80.5479 111.222Z" fill="#7E7E7E"/>
</svg>
