<svg width="81" height="86" viewBox="0 0 81 86" fill="none" xmlns="http://www.w3.org/2000/svg">
<path d="M40.5002 85.9998C58.6256 85.9998 73.3192 72.5721 73.3192 56.0082C73.3192 39.4443 58.6256 26.0166 40.5002 26.0166C22.3747 26.0166 7.68115 39.4443 7.68115 56.0082C7.68115 72.5721 22.3747 85.9998 40.5002 85.9998Z" fill="#FF59A9"/>
<path d="M39.8017 19.5126C45.5864 19.5126 50.2758 15.1446 50.2758 9.7563C50.2758 4.36804 45.5864 0 39.8017 0C34.0171 0 29.3276 4.36804 29.3276 9.7563C29.3276 15.1446 34.0171 19.5126 39.8017 19.5126Z" fill="#FF59A9"/>
<path d="M15.7976 32.0933C21.0246 28.7917 23.8441 22.1853 22.0951 17.3375C20.3462 12.4896 14.6912 11.2361 9.46422 14.5376C4.23728 17.8392 1.41778 24.4456 3.16671 29.2934C4.91563 34.1413 10.5707 35.3948 15.7976 32.0933Z" fill="#FF59A9"/>
<path d="M65.4536 31.4494C70.7484 34.5559 76.3747 33.0933 78.0203 28.1825C79.6659 23.2717 76.7077 16.7724 71.4129 13.6659C66.1182 10.5594 60.4919 12.022 58.8463 16.9328C57.2007 21.8435 60.1589 28.3428 65.4536 31.4494Z" fill="#FF59A9"/>
<path d="M56 55.5C56 56.8018 54.9447 57.8571 53.6429 57.8571H45.7143C44.0574 57.8571 42.7143 59.2003 42.7143 60.8571V69.7857C42.7143 71.0086 41.7229 72 40.5 72C39.2771 72 38.2857 71.0086 38.2857 69.7857V60.8571C38.2857 59.2003 36.9426 57.8571 35.2857 57.8571H27.3571C26.0553 57.8571 25 56.8018 25 55.5C25 54.1982 26.0553 53.1429 27.3571 53.1429H35.2857C36.9426 53.1429 38.2857 51.7997 38.2857 50.1429V41.2143C38.2857 39.9914 39.2771 39 40.5 39C41.7229 39 42.7143 39.9914 42.7143 41.2143V50.1429C42.7143 51.7997 44.0574 53.1429 45.7143 53.1429H53.6429C54.9447 53.1429 56 54.1982 56 55.5Z" fill="white"/>
</svg>
